<svg id="Capa_1" data-name="Capa 1" xmlns="http://www.w3.org/2000/svg" viewBox="0 0 198.23 198.23"><defs><style>.cls-1{fill:#fff;}</style></defs><path class="cls-1" d="M-391.5,360.33h0a93.28,93.28,0,0,0-93.17,93.17,93.28,93.28,0,0,0,93.17,93.17,93.27,93.27,0,0,0,93.17-93.17,93.27,93.27,0,0,0-93.17-93.17m0,192.29a99.23,99.23,0,0,1-99.11-99.12,99.23,99.23,0,0,1,99.11-99.12,99.23,99.23,0,0,1,99.11,99.12A99.23,99.23,0,0,1-391.5,552.62Z" transform="translate(490.61 -354.38)"/><path class="cls-1" d="M-394,412.68q-10.16,0-14.94,7.88t-4.77,24.56c0,.69,0,2,.13,3.86s.14,3.06.14,3.51a48.15,48.15,0,0,0,.41,5.3c.28,2.35.49,4.27.68,5.77q1.44-6.54,5.49-9.89a15.94,15.94,0,0,1,10.48-3.34,21.21,21.21,0,0,1,10.29,2.8,39.18,39.18,0,0,1,10.37,8.79l.21-4.58.07-7.64q0-19.74-4.34-28.38T-394,412.68Z" transform="translate(490.61 -354.38)"/><path class="cls-1" d="M-390.38,472.36a14.71,14.71,0,0,0-8.35-3.07,7.21,7.21,0,0,0-5.35,2.09,7.4,7.4,0,0,0-2.08,5.48,8.11,8.11,0,0,0,3,6.59,12.2,12.2,0,0,0,8.05,2.49,21.17,21.17,0,0,0,6.75-1.1,32,32,0,0,0,3.41-1.39,26.22,26.22,0,0,0,3.41-2A39.75,39.75,0,0,0-390.38,472.36Z" transform="translate(490.61 -354.38)"/><path class="cls-1" d="M-391.5,366.56a86.93,86.93,0,0,0-86.94,86.94,86.93,86.93,0,0,0,86.94,86.94,86.93,86.93,0,0,0,86.94-86.94A86.93,86.93,0,0,0-391.5,366.56Zm60.36,120.67a27.68,27.68,0,0,1-4.43,9.61q-5.61,7.65-16.51,7.65a25.14,25.14,0,0,1-11.35-2.63,35.43,35.43,0,0,1-10.27-8.08,74.59,74.59,0,0,1-11.39,3,69.56,69.56,0,0,1-12.14,1.06q-23.61,0-37.82-13.55t-14.23-36.08q0-23.28,14.46-36.52t40-13.24q25.46,0,39.84,13.24t14.39,36.52a56.17,56.17,0,0,1-3,19.32,42.85,42.85,0,0,1-9.27,14.82,28.6,28.6,0,0,0,3.88,2.52,8,8,0,0,0,3.34.83,4.6,4.6,0,0,0,4.37-2.6q1.37-2.6,1.37-8.18v-.82h10.29A51.13,51.13,0,0,1-331.14,487.23Z" transform="translate(490.61 -354.38)"/></svg>